<svg xmlns="http://www.w3.org/2000/svg" width="17" height="16" viewBox="0 0 17 16"><g><g><path fill="#282828" d="M15.159 15.188a.591.591 0 0 1-.84 0l-3.016-3.017a6.033 6.033 0 0 1-3.815 1.347 6.038 6.038 0 0 1-4.298-1.78A6.038 6.038 0 0 1 1.41 7.44a6.035 6.035 0 0 1 1.78-4.297 6.036 6.036 0 0 1 4.298-1.78 6.037 6.037 0 0 1 4.298 1.78c2.24 2.241 2.359 5.81.362 8.195l3.01 3.011zm-7.671-2.856a4.86 4.86 0 0 0 3.46-1.432 4.898 4.898 0 0 0 0-6.918 4.86 4.86 0 0 0-3.46-1.433 4.859 4.859 0 0 0-3.459 1.433A4.858 4.858 0 0 0 2.596 7.44 4.86 4.86 0 0 0 4.03 10.9z"/><path fill="none" stroke="#282828" stroke-miterlimit="20" d="M15.159 15.188a.591.591 0 0 1-.84 0l-3.016-3.017a6.033 6.033 0 0 1-3.815 1.347 6.038 6.038 0 0 1-4.298-1.78A6.038 6.038 0 0 1 1.41 7.44a6.035 6.035 0 0 1 1.78-4.297 6.036 6.036 0 0 1 4.298-1.78 6.037 6.037 0 0 1 4.298 1.78c2.24 2.241 2.359 5.81.362 8.195l3.01 3.011zm-7.671-2.856a4.86 4.86 0 0 0 3.46-1.432 4.898 4.898 0 0 0 0-6.918 4.86 4.86 0 0 0-3.46-1.433 4.859 4.859 0 0 0-3.459 1.433A4.858 4.858 0 0 0 2.596 7.44 4.86 4.86 0 0 0 4.03 10.9z"/></g></g></svg>